G04 #@! TF.GenerationSoftware,KiCad,Pcbnew,(5.1.4)-1*
G04 #@! TF.CreationDate,2021-07-27T11:29:55-04:00*
G04 #@! TF.ProjectId,9000 Clock Module,39303030-2043-46c6-9f63-6b204d6f6475,rev?*
G04 #@! TF.SameCoordinates,Original*
G04 #@! TF.FileFunction,Legend,Top*
G04 #@! TF.FilePolarity,Positive*
%FSLAX46Y46*%
G04 Gerber Fmt 4.6, Leading zero omitted, Abs format (unit mm)*
G04 Created by KiCad (PCBNEW (5.1.4)-1) date 2021-07-27 11:29:55*
%MOMM*%
%LPD*%
G04 APERTURE LIST*
%ADD10C,0.300000*%
%ADD11C,0.200000*%
%ADD12C,0.120000*%
%ADD13C,0.150000*%
G04 APERTURE END LIST*
D10*
X109282500Y-37238571D02*
X108871785Y-36524285D01*
X108425357Y-37238571D02*
X108612857Y-35738571D01*
X109184285Y-35738571D01*
X109318214Y-35810000D01*
X109380714Y-35881428D01*
X109434285Y-36024285D01*
X109407500Y-36238571D01*
X109318214Y-36381428D01*
X109237857Y-36452857D01*
X109086071Y-36524285D01*
X108514642Y-36524285D01*
X110023571Y-36452857D02*
X110523571Y-36452857D01*
X110639642Y-37238571D02*
X109925357Y-37238571D01*
X110112857Y-35738571D01*
X110827142Y-35738571D01*
X111255714Y-35738571D02*
X111568214Y-37238571D01*
X112255714Y-35738571D01*
X113353928Y-37238571D02*
X112496785Y-37238571D01*
X112925357Y-37238571D02*
X113112857Y-35738571D01*
X112943214Y-35952857D01*
X112782500Y-36095714D01*
X112630714Y-36167142D01*
X92948571Y-47671428D02*
X93019999Y-47600000D01*
X93162857Y-47528571D01*
X93519999Y-47528571D01*
X93662857Y-47600000D01*
X93734285Y-47671428D01*
X93805714Y-47814285D01*
X93805714Y-47957142D01*
X93734285Y-48171428D01*
X92877142Y-49028571D01*
X93805714Y-49028571D01*
X95162857Y-47528571D02*
X94448571Y-47528571D01*
X94377142Y-48242857D01*
X94448571Y-48171428D01*
X94591428Y-48100000D01*
X94948571Y-48100000D01*
X95091428Y-48171428D01*
X95162857Y-48242857D01*
X95234285Y-48385714D01*
X95234285Y-48742857D01*
X95162857Y-48885714D01*
X95091428Y-48957142D01*
X94948571Y-49028571D01*
X94591428Y-49028571D01*
X94448571Y-48957142D01*
X94377142Y-48885714D01*
X96162857Y-47528571D02*
X96305714Y-47528571D01*
X96448571Y-47600000D01*
X96519999Y-47671428D01*
X96591428Y-47814285D01*
X96662857Y-48100000D01*
X96662857Y-48457142D01*
X96591428Y-48742857D01*
X96519999Y-48885714D01*
X96448571Y-48957142D01*
X96305714Y-49028571D01*
X96162857Y-49028571D01*
X96019999Y-48957142D01*
X95948571Y-48885714D01*
X95877142Y-48742857D01*
X95805714Y-48457142D01*
X95805714Y-48100000D01*
X95877142Y-47814285D01*
X95948571Y-47671428D01*
X96019999Y-47600000D01*
X96162857Y-47528571D01*
X97091428Y-47528571D02*
X97591428Y-49028571D01*
X98091428Y-47528571D01*
X100019999Y-47528571D02*
X100162857Y-47528571D01*
X100305714Y-47600000D01*
X100377142Y-47671428D01*
X100448571Y-47814285D01*
X100519999Y-48100000D01*
X100519999Y-48457142D01*
X100448571Y-48742857D01*
X100377142Y-48885714D01*
X100305714Y-48957142D01*
X100162857Y-49028571D01*
X100019999Y-49028571D01*
X99877142Y-48957142D01*
X99805714Y-48885714D01*
X99734285Y-48742857D01*
X99662857Y-48457142D01*
X99662857Y-48100000D01*
X99734285Y-47814285D01*
X99805714Y-47671428D01*
X99877142Y-47600000D01*
X100019999Y-47528571D01*
X101162857Y-48885714D02*
X101234285Y-48957142D01*
X101162857Y-49028571D01*
X101091428Y-48957142D01*
X101162857Y-48885714D01*
X101162857Y-49028571D01*
X101805714Y-47671428D02*
X101877142Y-47600000D01*
X102019999Y-47528571D01*
X102377142Y-47528571D01*
X102519999Y-47600000D01*
X102591428Y-47671428D01*
X102662857Y-47814285D01*
X102662857Y-47957142D01*
X102591428Y-48171428D01*
X101734285Y-49028571D01*
X102662857Y-49028571D01*
X104019999Y-47528571D02*
X103305714Y-47528571D01*
X103234285Y-48242857D01*
X103305714Y-48171428D01*
X103448571Y-48100000D01*
X103805714Y-48100000D01*
X103948571Y-48171428D01*
X104019999Y-48242857D01*
X104091428Y-48385714D01*
X104091428Y-48742857D01*
X104019999Y-48885714D01*
X103948571Y-48957142D01*
X103805714Y-49028571D01*
X103448571Y-49028571D01*
X103305714Y-48957142D01*
X103234285Y-48885714D01*
X104662857Y-48600000D02*
X105377142Y-48600000D01*
X104520000Y-49028571D02*
X105020000Y-47528571D01*
X105520000Y-49028571D01*
X107662857Y-48242857D02*
X107162857Y-48242857D01*
X107162857Y-49028571D02*
X107162857Y-47528571D01*
X107877142Y-47528571D01*
X109091428Y-49028571D02*
X109091428Y-48242857D01*
X109019999Y-48100000D01*
X108877142Y-48028571D01*
X108591428Y-48028571D01*
X108448571Y-48100000D01*
X109091428Y-48957142D02*
X108948571Y-49028571D01*
X108591428Y-49028571D01*
X108448571Y-48957142D01*
X108377142Y-48814285D01*
X108377142Y-48671428D01*
X108448571Y-48528571D01*
X108591428Y-48457142D01*
X108948571Y-48457142D01*
X109091428Y-48385714D01*
X109734285Y-48957142D02*
X109877142Y-49028571D01*
X110162857Y-49028571D01*
X110305714Y-48957142D01*
X110377142Y-48814285D01*
X110377142Y-48742857D01*
X110305714Y-48600000D01*
X110162857Y-48528571D01*
X109948571Y-48528571D01*
X109805714Y-48457142D01*
X109734285Y-48314285D01*
X109734285Y-48242857D01*
X109805714Y-48100000D01*
X109948571Y-48028571D01*
X110162857Y-48028571D01*
X110305714Y-48100000D01*
X110805714Y-48028571D02*
X111377142Y-48028571D01*
X111019999Y-47528571D02*
X111019999Y-48814285D01*
X111091428Y-48957142D01*
X111234285Y-49028571D01*
X111377142Y-49028571D01*
X113519999Y-48242857D02*
X113734285Y-48314285D01*
X113805714Y-48385714D01*
X113877142Y-48528571D01*
X113877142Y-48742857D01*
X113805714Y-48885714D01*
X113734285Y-48957142D01*
X113591428Y-49028571D01*
X113019999Y-49028571D01*
X113019999Y-47528571D01*
X113519999Y-47528571D01*
X113662857Y-47600000D01*
X113734285Y-47671428D01*
X113805714Y-47814285D01*
X113805714Y-47957142D01*
X113734285Y-48100000D01*
X113662857Y-48171428D01*
X113519999Y-48242857D01*
X113019999Y-48242857D01*
X114734285Y-49028571D02*
X114591428Y-48957142D01*
X114519999Y-48814285D01*
X114519999Y-47528571D01*
X115519999Y-49028571D02*
X115377142Y-48957142D01*
X115305714Y-48885714D01*
X115234285Y-48742857D01*
X115234285Y-48314285D01*
X115305714Y-48171428D01*
X115377142Y-48100000D01*
X115519999Y-48028571D01*
X115734285Y-48028571D01*
X115877142Y-48100000D01*
X115948571Y-48171428D01*
X116019999Y-48314285D01*
X116019999Y-48742857D01*
X115948571Y-48885714D01*
X115877142Y-48957142D01*
X115734285Y-49028571D01*
X115519999Y-49028571D01*
X116519999Y-48028571D02*
X116805714Y-49028571D01*
X117091428Y-48314285D01*
X117377142Y-49028571D01*
X117662857Y-48028571D01*
D11*
X127459523Y-47842380D02*
X126983333Y-47842380D01*
X126935714Y-48318571D01*
X126983333Y-48270952D01*
X127078571Y-48223333D01*
X127316666Y-48223333D01*
X127411904Y-48270952D01*
X127459523Y-48318571D01*
X127507142Y-48413809D01*
X127507142Y-48651904D01*
X127459523Y-48747142D01*
X127411904Y-48794761D01*
X127316666Y-48842380D01*
X127078571Y-48842380D01*
X126983333Y-48794761D01*
X126935714Y-48747142D01*
X127792857Y-47842380D02*
X128126190Y-48842380D01*
X128459523Y-47842380D01*
X122154285Y-48491428D02*
X122916190Y-48491428D01*
X123868571Y-47872380D02*
X123392380Y-47872380D01*
X123344761Y-48348571D01*
X123392380Y-48300952D01*
X123487619Y-48253333D01*
X123725714Y-48253333D01*
X123820952Y-48300952D01*
X123868571Y-48348571D01*
X123916190Y-48443809D01*
X123916190Y-48681904D01*
X123868571Y-48777142D01*
X123820952Y-48824761D01*
X123725714Y-48872380D01*
X123487619Y-48872380D01*
X123392380Y-48824761D01*
X123344761Y-48777142D01*
X124201904Y-47872380D02*
X124535238Y-48872380D01*
X124868571Y-47872380D01*
D12*
X101772000Y-79002000D02*
X101772000Y-80002000D01*
X100412000Y-80002000D02*
X100412000Y-79002000D01*
X106886000Y-79954000D02*
X106886000Y-78954000D01*
X108246000Y-78954000D02*
X108246000Y-79954000D01*
X114698000Y-78914000D02*
X114698000Y-79914000D01*
X113338000Y-79914000D02*
X113338000Y-78914000D01*
X120784000Y-78894000D02*
X120784000Y-79894000D01*
X119424000Y-79894000D02*
X119424000Y-78894000D01*
X112420000Y-66790000D02*
X112420000Y-67790000D01*
X111060000Y-67790000D02*
X111060000Y-66790000D01*
X102570000Y-73470000D02*
X103570000Y-73470000D01*
X103570000Y-74830000D02*
X102570000Y-74830000D01*
X98050000Y-73470000D02*
X99050000Y-73470000D01*
X99050000Y-74830000D02*
X98050000Y-74830000D01*
X123430000Y-74920000D02*
X122430000Y-74920000D01*
X122430000Y-73560000D02*
X123430000Y-73560000D01*
X118900000Y-74910000D02*
X117900000Y-74910000D01*
X117900000Y-73550000D02*
X118900000Y-73550000D01*
X129970000Y-68170000D02*
X129970000Y-69170000D01*
X128610000Y-69170000D02*
X128610000Y-68170000D01*
X91120000Y-68010000D02*
X91120000Y-67010000D01*
X92480000Y-67010000D02*
X92480000Y-68010000D01*
X110480000Y-68180000D02*
X110480000Y-69180000D01*
X109120000Y-69180000D02*
X109120000Y-68180000D01*
X107820000Y-71260000D02*
X107820000Y-72190000D01*
X107820000Y-74420000D02*
X107820000Y-73490000D01*
X107820000Y-74420000D02*
X109980000Y-74420000D01*
X107820000Y-71260000D02*
X109280000Y-71260000D01*
X94290000Y-73360000D02*
X92830000Y-73360000D01*
X94290000Y-70200000D02*
X92130000Y-70200000D01*
X94290000Y-70200000D02*
X94290000Y-71130000D01*
X94290000Y-73360000D02*
X94290000Y-72430000D01*
X127200000Y-71250000D02*
X127200000Y-72180000D01*
X127200000Y-74410000D02*
X127200000Y-73480000D01*
X127200000Y-74410000D02*
X129360000Y-74410000D01*
X127200000Y-71250000D02*
X128660000Y-71250000D01*
X114220000Y-72990000D02*
X112760000Y-72990000D01*
X114220000Y-69830000D02*
X112060000Y-69830000D01*
X114220000Y-69830000D02*
X114220000Y-70760000D01*
X114220000Y-72990000D02*
X114220000Y-72060000D01*
X124010000Y-49720000D02*
X122910000Y-49720000D01*
X122910000Y-49720000D02*
X122910000Y-52320000D01*
X124010000Y-49720000D02*
X124010000Y-52320000D01*
X128200000Y-49730000D02*
X128200000Y-52330000D01*
X127100000Y-49730000D02*
X127100000Y-52330000D01*
X128200000Y-49730000D02*
X127100000Y-49730000D01*
X108200000Y-56730000D02*
X108200000Y-49730000D01*
X108200000Y-49730000D02*
X117950000Y-49730000D01*
X117950000Y-56730000D02*
X117950000Y-49730000D01*
X108200000Y-56730000D02*
X117950000Y-56730000D01*
X116950000Y-55730000D02*
X116950000Y-50730000D01*
X91950000Y-49730000D02*
X92950000Y-49730000D01*
X91950000Y-56730000D02*
X91950000Y-49730000D01*
X91950000Y-56730000D02*
X92950000Y-56730000D01*
X92950000Y-55730000D02*
X92950000Y-50730000D01*
X92950000Y-55730000D02*
X103700000Y-55730000D01*
X92950000Y-50730000D02*
X103450000Y-50730000D01*
X103700000Y-55730000D02*
X115450000Y-55730000D01*
X103450000Y-50730000D02*
X115700000Y-50730000D01*
X115450000Y-55730000D02*
X116950000Y-55730000D01*
X115700000Y-50730000D02*
X116950000Y-50730000D01*
X92950000Y-56730000D02*
X101700000Y-56730000D01*
X92950000Y-49730000D02*
X101700000Y-49730000D01*
X101700000Y-56730000D02*
X101700000Y-49730000D01*
X101700000Y-53230000D02*
X108200000Y-53230000D01*
X104420000Y-87080000D02*
X104420000Y-85750000D01*
X105750000Y-87080000D02*
X104420000Y-87080000D01*
X107020000Y-87080000D02*
X107020000Y-84420000D01*
X107020000Y-84420000D02*
X117240000Y-84420000D01*
X107020000Y-87080000D02*
X117240000Y-87080000D01*
X117240000Y-87080000D02*
X117240000Y-84420000D01*
X98380000Y-80002000D02*
X98380000Y-79002000D01*
X99740000Y-79002000D02*
X99740000Y-80002000D01*
X103804000Y-79002000D02*
X103804000Y-80002000D01*
X102444000Y-80002000D02*
X102444000Y-79002000D01*
X106116000Y-78954000D02*
X106116000Y-79954000D01*
X104756000Y-79954000D02*
X104756000Y-78954000D01*
X109048000Y-80002000D02*
X109048000Y-79002000D01*
X110408000Y-79002000D02*
X110408000Y-80002000D01*
X111228000Y-79914000D02*
X111228000Y-78914000D01*
X112588000Y-78914000D02*
X112588000Y-79914000D01*
X116798000Y-78914000D02*
X116798000Y-79914000D01*
X115438000Y-79914000D02*
X115438000Y-78914000D01*
X117444000Y-79894000D02*
X117444000Y-78894000D01*
X118804000Y-78894000D02*
X118804000Y-79894000D01*
X121484000Y-79914000D02*
X121484000Y-78914000D01*
X122844000Y-78914000D02*
X122844000Y-79914000D01*
X104200000Y-58610000D02*
X104200000Y-59610000D01*
X102840000Y-59610000D02*
X102840000Y-58610000D01*
X100000000Y-59660000D02*
X100000000Y-58660000D01*
X101360000Y-58660000D02*
X101360000Y-59660000D01*
X110040000Y-58660000D02*
X110040000Y-59660000D01*
X108680000Y-59660000D02*
X108680000Y-58660000D01*
X105740000Y-59660000D02*
X105740000Y-58660000D01*
X107100000Y-58660000D02*
X107100000Y-59660000D01*
X118680000Y-51990000D02*
X118680000Y-50990000D01*
X120040000Y-50990000D02*
X120040000Y-51990000D01*
X122120000Y-51020000D02*
X122120000Y-52020000D01*
X120760000Y-52020000D02*
X120760000Y-51020000D01*
X106900000Y-68150000D02*
X106900000Y-69150000D01*
X105540000Y-69150000D02*
X105540000Y-68150000D01*
X94810000Y-67990000D02*
X94810000Y-66990000D01*
X96170000Y-66990000D02*
X96170000Y-67990000D01*
X126470000Y-68170000D02*
X126470000Y-69170000D01*
X125110000Y-69170000D02*
X125110000Y-68170000D01*
X114750000Y-67800000D02*
X114750000Y-66800000D01*
X116110000Y-66800000D02*
X116110000Y-67800000D01*
X108690000Y-68180000D02*
X108690000Y-69180000D01*
X107330000Y-69180000D02*
X107330000Y-68180000D01*
X92950000Y-68010000D02*
X92950000Y-67010000D01*
X94310000Y-67010000D02*
X94310000Y-68010000D01*
X128190000Y-68220000D02*
X128190000Y-69220000D01*
X126830000Y-69220000D02*
X126830000Y-68220000D01*
X114230000Y-66790000D02*
X114230000Y-67790000D01*
X112870000Y-67790000D02*
X112870000Y-66790000D01*
X124890000Y-52020000D02*
X124890000Y-51020000D01*
X126250000Y-51020000D02*
X126250000Y-52020000D01*
X128890000Y-51990000D02*
X128890000Y-50990000D01*
X130250000Y-50990000D02*
X130250000Y-51990000D01*
D13*
X102745000Y-72595000D02*
X104120000Y-72595000D01*
X102745000Y-63720000D02*
X98595000Y-63720000D01*
X102745000Y-72620000D02*
X98595000Y-72620000D01*
X102745000Y-63720000D02*
X102745000Y-63835000D01*
X98595000Y-63720000D02*
X98595000Y-63835000D01*
X98595000Y-72620000D02*
X98595000Y-72505000D01*
X102745000Y-72620000D02*
X102745000Y-72595000D01*
X122585000Y-72630000D02*
X122585000Y-72605000D01*
X118435000Y-72630000D02*
X118435000Y-72515000D01*
X118435000Y-63730000D02*
X118435000Y-63845000D01*
X122585000Y-63730000D02*
X122585000Y-63845000D01*
X122585000Y-72630000D02*
X118435000Y-72630000D01*
X122585000Y-63730000D02*
X118435000Y-63730000D01*
X122585000Y-72605000D02*
X123960000Y-72605000D01*
D12*
X130345000Y-32250000D02*
X130345000Y-44590000D01*
X130345000Y-44590000D02*
X91025000Y-44590000D01*
X91025000Y-44590000D02*
X91025000Y-32250000D01*
X101240000Y-45484338D02*
X100740000Y-45484338D01*
X100740000Y-45484338D02*
X100990000Y-45051325D01*
X100990000Y-45051325D02*
X101240000Y-45484338D01*
D13*
X101449142Y-82716666D02*
X101496761Y-82764285D01*
X101544380Y-82907142D01*
X101544380Y-83002380D01*
X101496761Y-83145238D01*
X101401523Y-83240476D01*
X101306285Y-83288095D01*
X101115809Y-83335714D01*
X100972952Y-83335714D01*
X100782476Y-83288095D01*
X100687238Y-83240476D01*
X100592000Y-83145238D01*
X100544380Y-83002380D01*
X100544380Y-82907142D01*
X100592000Y-82764285D01*
X100639619Y-82716666D01*
X101544380Y-81764285D02*
X101544380Y-82335714D01*
X101544380Y-82050000D02*
X100544380Y-82050000D01*
X100687238Y-82145238D01*
X100782476Y-82240476D01*
X100830095Y-82335714D01*
X107923142Y-82570666D02*
X107970761Y-82618285D01*
X108018380Y-82761142D01*
X108018380Y-82856380D01*
X107970761Y-82999238D01*
X107875523Y-83094476D01*
X107780285Y-83142095D01*
X107589809Y-83189714D01*
X107446952Y-83189714D01*
X107256476Y-83142095D01*
X107161238Y-83094476D01*
X107066000Y-82999238D01*
X107018380Y-82856380D01*
X107018380Y-82761142D01*
X107066000Y-82618285D01*
X107113619Y-82570666D01*
X107113619Y-82189714D02*
X107066000Y-82142095D01*
X107018380Y-82046857D01*
X107018380Y-81808761D01*
X107066000Y-81713523D01*
X107113619Y-81665904D01*
X107208857Y-81618285D01*
X107304095Y-81618285D01*
X107446952Y-81665904D01*
X108018380Y-82237333D01*
X108018380Y-81618285D01*
X114425142Y-82680666D02*
X114472761Y-82728285D01*
X114520380Y-82871142D01*
X114520380Y-82966380D01*
X114472761Y-83109238D01*
X114377523Y-83204476D01*
X114282285Y-83252095D01*
X114091809Y-83299714D01*
X113948952Y-83299714D01*
X113758476Y-83252095D01*
X113663238Y-83204476D01*
X113568000Y-83109238D01*
X113520380Y-82966380D01*
X113520380Y-82871142D01*
X113568000Y-82728285D01*
X113615619Y-82680666D01*
X113520380Y-82347333D02*
X113520380Y-81728285D01*
X113901333Y-82061619D01*
X113901333Y-81918761D01*
X113948952Y-81823523D01*
X113996571Y-81775904D01*
X114091809Y-81728285D01*
X114329904Y-81728285D01*
X114425142Y-81775904D01*
X114472761Y-81823523D01*
X114520380Y-81918761D01*
X114520380Y-82204476D01*
X114472761Y-82299714D01*
X114425142Y-82347333D01*
X120541142Y-82620666D02*
X120588761Y-82668285D01*
X120636380Y-82811142D01*
X120636380Y-82906380D01*
X120588761Y-83049238D01*
X120493523Y-83144476D01*
X120398285Y-83192095D01*
X120207809Y-83239714D01*
X120064952Y-83239714D01*
X119874476Y-83192095D01*
X119779238Y-83144476D01*
X119684000Y-83049238D01*
X119636380Y-82906380D01*
X119636380Y-82811142D01*
X119684000Y-82668285D01*
X119731619Y-82620666D01*
X119969714Y-81763523D02*
X120636380Y-81763523D01*
X119588761Y-82001619D02*
X120303047Y-82239714D01*
X120303047Y-81620666D01*
X112057142Y-64186666D02*
X112104761Y-64234285D01*
X112152380Y-64377142D01*
X112152380Y-64472380D01*
X112104761Y-64615238D01*
X112009523Y-64710476D01*
X111914285Y-64758095D01*
X111723809Y-64805714D01*
X111580952Y-64805714D01*
X111390476Y-64758095D01*
X111295238Y-64710476D01*
X111200000Y-64615238D01*
X111152380Y-64472380D01*
X111152380Y-64377142D01*
X111200000Y-64234285D01*
X111247619Y-64186666D01*
X111152380Y-63281904D02*
X111152380Y-63758095D01*
X111628571Y-63805714D01*
X111580952Y-63758095D01*
X111533333Y-63662857D01*
X111533333Y-63424761D01*
X111580952Y-63329523D01*
X111628571Y-63281904D01*
X111723809Y-63234285D01*
X111961904Y-63234285D01*
X112057142Y-63281904D01*
X112104761Y-63329523D01*
X112152380Y-63424761D01*
X112152380Y-63662857D01*
X112104761Y-63758095D01*
X112057142Y-63805714D01*
X102853333Y-76077142D02*
X102805714Y-76124761D01*
X102662857Y-76172380D01*
X102567619Y-76172380D01*
X102424761Y-76124761D01*
X102329523Y-76029523D01*
X102281904Y-75934285D01*
X102234285Y-75743809D01*
X102234285Y-75600952D01*
X102281904Y-75410476D01*
X102329523Y-75315238D01*
X102424761Y-75220000D01*
X102567619Y-75172380D01*
X102662857Y-75172380D01*
X102805714Y-75220000D01*
X102853333Y-75267619D01*
X103710476Y-75172380D02*
X103520000Y-75172380D01*
X103424761Y-75220000D01*
X103377142Y-75267619D01*
X103281904Y-75410476D01*
X103234285Y-75600952D01*
X103234285Y-75981904D01*
X103281904Y-76077142D01*
X103329523Y-76124761D01*
X103424761Y-76172380D01*
X103615238Y-76172380D01*
X103710476Y-76124761D01*
X103758095Y-76077142D01*
X103805714Y-75981904D01*
X103805714Y-75743809D01*
X103758095Y-75648571D01*
X103710476Y-75600952D01*
X103615238Y-75553333D01*
X103424761Y-75553333D01*
X103329523Y-75600952D01*
X103281904Y-75648571D01*
X103234285Y-75743809D01*
X98383333Y-75957142D02*
X98335714Y-76004761D01*
X98192857Y-76052380D01*
X98097619Y-76052380D01*
X97954761Y-76004761D01*
X97859523Y-75909523D01*
X97811904Y-75814285D01*
X97764285Y-75623809D01*
X97764285Y-75480952D01*
X97811904Y-75290476D01*
X97859523Y-75195238D01*
X97954761Y-75100000D01*
X98097619Y-75052380D01*
X98192857Y-75052380D01*
X98335714Y-75100000D01*
X98383333Y-75147619D01*
X98716666Y-75052380D02*
X99383333Y-75052380D01*
X98954761Y-76052380D01*
X122753333Y-76057142D02*
X122705714Y-76104761D01*
X122562857Y-76152380D01*
X122467619Y-76152380D01*
X122324761Y-76104761D01*
X122229523Y-76009523D01*
X122181904Y-75914285D01*
X122134285Y-75723809D01*
X122134285Y-75580952D01*
X122181904Y-75390476D01*
X122229523Y-75295238D01*
X122324761Y-75200000D01*
X122467619Y-75152380D01*
X122562857Y-75152380D01*
X122705714Y-75200000D01*
X122753333Y-75247619D01*
X123324761Y-75580952D02*
X123229523Y-75533333D01*
X123181904Y-75485714D01*
X123134285Y-75390476D01*
X123134285Y-75342857D01*
X123181904Y-75247619D01*
X123229523Y-75200000D01*
X123324761Y-75152380D01*
X123515238Y-75152380D01*
X123610476Y-75200000D01*
X123658095Y-75247619D01*
X123705714Y-75342857D01*
X123705714Y-75390476D01*
X123658095Y-75485714D01*
X123610476Y-75533333D01*
X123515238Y-75580952D01*
X123324761Y-75580952D01*
X123229523Y-75628571D01*
X123181904Y-75676190D01*
X123134285Y-75771428D01*
X123134285Y-75961904D01*
X123181904Y-76057142D01*
X123229523Y-76104761D01*
X123324761Y-76152380D01*
X123515238Y-76152380D01*
X123610476Y-76104761D01*
X123658095Y-76057142D01*
X123705714Y-75961904D01*
X123705714Y-75771428D01*
X123658095Y-75676190D01*
X123610476Y-75628571D01*
X123515238Y-75580952D01*
X118233333Y-76037142D02*
X118185714Y-76084761D01*
X118042857Y-76132380D01*
X117947619Y-76132380D01*
X117804761Y-76084761D01*
X117709523Y-75989523D01*
X117661904Y-75894285D01*
X117614285Y-75703809D01*
X117614285Y-75560952D01*
X117661904Y-75370476D01*
X117709523Y-75275238D01*
X117804761Y-75180000D01*
X117947619Y-75132380D01*
X118042857Y-75132380D01*
X118185714Y-75180000D01*
X118233333Y-75227619D01*
X118709523Y-76132380D02*
X118900000Y-76132380D01*
X118995238Y-76084761D01*
X119042857Y-76037142D01*
X119138095Y-75894285D01*
X119185714Y-75703809D01*
X119185714Y-75322857D01*
X119138095Y-75227619D01*
X119090476Y-75180000D01*
X118995238Y-75132380D01*
X118804761Y-75132380D01*
X118709523Y-75180000D01*
X118661904Y-75227619D01*
X118614285Y-75322857D01*
X118614285Y-75560952D01*
X118661904Y-75656190D01*
X118709523Y-75703809D01*
X118804761Y-75751428D01*
X118995238Y-75751428D01*
X119090476Y-75703809D01*
X119138095Y-75656190D01*
X119185714Y-75560952D01*
X129587142Y-65712857D02*
X129634761Y-65760476D01*
X129682380Y-65903333D01*
X129682380Y-65998571D01*
X129634761Y-66141428D01*
X129539523Y-66236666D01*
X129444285Y-66284285D01*
X129253809Y-66331904D01*
X129110952Y-66331904D01*
X128920476Y-66284285D01*
X128825238Y-66236666D01*
X128730000Y-66141428D01*
X128682380Y-65998571D01*
X128682380Y-65903333D01*
X128730000Y-65760476D01*
X128777619Y-65712857D01*
X129682380Y-64760476D02*
X129682380Y-65331904D01*
X129682380Y-65046190D02*
X128682380Y-65046190D01*
X128825238Y-65141428D01*
X128920476Y-65236666D01*
X128968095Y-65331904D01*
X128682380Y-64141428D02*
X128682380Y-64046190D01*
X128730000Y-63950952D01*
X128777619Y-63903333D01*
X128872857Y-63855714D01*
X129063333Y-63808095D01*
X129301428Y-63808095D01*
X129491904Y-63855714D01*
X129587142Y-63903333D01*
X129634761Y-63950952D01*
X129682380Y-64046190D01*
X129682380Y-64141428D01*
X129634761Y-64236666D01*
X129587142Y-64284285D01*
X129491904Y-64331904D01*
X129301428Y-64379523D01*
X129063333Y-64379523D01*
X128872857Y-64331904D01*
X128777619Y-64284285D01*
X128730000Y-64236666D01*
X128682380Y-64141428D01*
X92127142Y-64472857D02*
X92174761Y-64520476D01*
X92222380Y-64663333D01*
X92222380Y-64758571D01*
X92174761Y-64901428D01*
X92079523Y-64996666D01*
X91984285Y-65044285D01*
X91793809Y-65091904D01*
X91650952Y-65091904D01*
X91460476Y-65044285D01*
X91365238Y-64996666D01*
X91270000Y-64901428D01*
X91222380Y-64758571D01*
X91222380Y-64663333D01*
X91270000Y-64520476D01*
X91317619Y-64472857D01*
X92222380Y-63520476D02*
X92222380Y-64091904D01*
X92222380Y-63806190D02*
X91222380Y-63806190D01*
X91365238Y-63901428D01*
X91460476Y-63996666D01*
X91508095Y-64091904D01*
X92222380Y-62568095D02*
X92222380Y-63139523D01*
X92222380Y-62853809D02*
X91222380Y-62853809D01*
X91365238Y-62949047D01*
X91460476Y-63044285D01*
X91508095Y-63139523D01*
X110137142Y-65862857D02*
X110184761Y-65910476D01*
X110232380Y-66053333D01*
X110232380Y-66148571D01*
X110184761Y-66291428D01*
X110089523Y-66386666D01*
X109994285Y-66434285D01*
X109803809Y-66481904D01*
X109660952Y-66481904D01*
X109470476Y-66434285D01*
X109375238Y-66386666D01*
X109280000Y-66291428D01*
X109232380Y-66148571D01*
X109232380Y-66053333D01*
X109280000Y-65910476D01*
X109327619Y-65862857D01*
X110232380Y-64910476D02*
X110232380Y-65481904D01*
X110232380Y-65196190D02*
X109232380Y-65196190D01*
X109375238Y-65291428D01*
X109470476Y-65386666D01*
X109518095Y-65481904D01*
X109327619Y-64529523D02*
X109280000Y-64481904D01*
X109232380Y-64386666D01*
X109232380Y-64148571D01*
X109280000Y-64053333D01*
X109327619Y-64005714D01*
X109422857Y-63958095D01*
X109518095Y-63958095D01*
X109660952Y-64005714D01*
X110232380Y-64577142D01*
X110232380Y-63958095D01*
X107833333Y-75827142D02*
X107785714Y-75874761D01*
X107642857Y-75922380D01*
X107547619Y-75922380D01*
X107404761Y-75874761D01*
X107309523Y-75779523D01*
X107261904Y-75684285D01*
X107214285Y-75493809D01*
X107214285Y-75350952D01*
X107261904Y-75160476D01*
X107309523Y-75065238D01*
X107404761Y-74970000D01*
X107547619Y-74922380D01*
X107642857Y-74922380D01*
X107785714Y-74970000D01*
X107833333Y-75017619D01*
X108833333Y-75922380D02*
X108500000Y-75446190D01*
X108261904Y-75922380D02*
X108261904Y-74922380D01*
X108642857Y-74922380D01*
X108738095Y-74970000D01*
X108785714Y-75017619D01*
X108833333Y-75112857D01*
X108833333Y-75255714D01*
X108785714Y-75350952D01*
X108738095Y-75398571D01*
X108642857Y-75446190D01*
X108261904Y-75446190D01*
X109785714Y-75922380D02*
X109214285Y-75922380D01*
X109500000Y-75922380D02*
X109500000Y-74922380D01*
X109404761Y-75065238D01*
X109309523Y-75160476D01*
X109214285Y-75208095D01*
X92833333Y-74867142D02*
X92785714Y-74914761D01*
X92642857Y-74962380D01*
X92547619Y-74962380D01*
X92404761Y-74914761D01*
X92309523Y-74819523D01*
X92261904Y-74724285D01*
X92214285Y-74533809D01*
X92214285Y-74390952D01*
X92261904Y-74200476D01*
X92309523Y-74105238D01*
X92404761Y-74010000D01*
X92547619Y-73962380D01*
X92642857Y-73962380D01*
X92785714Y-74010000D01*
X92833333Y-74057619D01*
X93833333Y-74962380D02*
X93500000Y-74486190D01*
X93261904Y-74962380D02*
X93261904Y-73962380D01*
X93642857Y-73962380D01*
X93738095Y-74010000D01*
X93785714Y-74057619D01*
X93833333Y-74152857D01*
X93833333Y-74295714D01*
X93785714Y-74390952D01*
X93738095Y-74438571D01*
X93642857Y-74486190D01*
X93261904Y-74486190D01*
X94214285Y-74057619D02*
X94261904Y-74010000D01*
X94357142Y-73962380D01*
X94595238Y-73962380D01*
X94690476Y-74010000D01*
X94738095Y-74057619D01*
X94785714Y-74152857D01*
X94785714Y-74248095D01*
X94738095Y-74390952D01*
X94166666Y-74962380D01*
X94785714Y-74962380D01*
X127293333Y-75687142D02*
X127245714Y-75734761D01*
X127102857Y-75782380D01*
X127007619Y-75782380D01*
X126864761Y-75734761D01*
X126769523Y-75639523D01*
X126721904Y-75544285D01*
X126674285Y-75353809D01*
X126674285Y-75210952D01*
X126721904Y-75020476D01*
X126769523Y-74925238D01*
X126864761Y-74830000D01*
X127007619Y-74782380D01*
X127102857Y-74782380D01*
X127245714Y-74830000D01*
X127293333Y-74877619D01*
X128293333Y-75782380D02*
X127960000Y-75306190D01*
X127721904Y-75782380D02*
X127721904Y-74782380D01*
X128102857Y-74782380D01*
X128198095Y-74830000D01*
X128245714Y-74877619D01*
X128293333Y-74972857D01*
X128293333Y-75115714D01*
X128245714Y-75210952D01*
X128198095Y-75258571D01*
X128102857Y-75306190D01*
X127721904Y-75306190D01*
X128626666Y-74782380D02*
X129245714Y-74782380D01*
X128912380Y-75163333D01*
X129055238Y-75163333D01*
X129150476Y-75210952D01*
X129198095Y-75258571D01*
X129245714Y-75353809D01*
X129245714Y-75591904D01*
X129198095Y-75687142D01*
X129150476Y-75734761D01*
X129055238Y-75782380D01*
X128769523Y-75782380D01*
X128674285Y-75734761D01*
X128626666Y-75687142D01*
X112763333Y-74487142D02*
X112715714Y-74534761D01*
X112572857Y-74582380D01*
X112477619Y-74582380D01*
X112334761Y-74534761D01*
X112239523Y-74439523D01*
X112191904Y-74344285D01*
X112144285Y-74153809D01*
X112144285Y-74010952D01*
X112191904Y-73820476D01*
X112239523Y-73725238D01*
X112334761Y-73630000D01*
X112477619Y-73582380D01*
X112572857Y-73582380D01*
X112715714Y-73630000D01*
X112763333Y-73677619D01*
X113763333Y-74582380D02*
X113430000Y-74106190D01*
X113191904Y-74582380D02*
X113191904Y-73582380D01*
X113572857Y-73582380D01*
X113668095Y-73630000D01*
X113715714Y-73677619D01*
X113763333Y-73772857D01*
X113763333Y-73915714D01*
X113715714Y-74010952D01*
X113668095Y-74058571D01*
X113572857Y-74106190D01*
X113191904Y-74106190D01*
X114620476Y-73915714D02*
X114620476Y-74582380D01*
X114382380Y-73534761D02*
X114144285Y-74249047D01*
X114763333Y-74249047D01*
X123882380Y-55288095D02*
X122882380Y-55288095D01*
X122882380Y-55050000D01*
X122930000Y-54907142D01*
X123025238Y-54811904D01*
X123120476Y-54764285D01*
X123310952Y-54716666D01*
X123453809Y-54716666D01*
X123644285Y-54764285D01*
X123739523Y-54811904D01*
X123834761Y-54907142D01*
X123882380Y-55050000D01*
X123882380Y-55288095D01*
X123882380Y-53764285D02*
X123882380Y-54335714D01*
X123882380Y-54050000D02*
X122882380Y-54050000D01*
X123025238Y-54145238D01*
X123120476Y-54240476D01*
X123168095Y-54335714D01*
X128162380Y-55268095D02*
X127162380Y-55268095D01*
X127162380Y-55030000D01*
X127210000Y-54887142D01*
X127305238Y-54791904D01*
X127400476Y-54744285D01*
X127590952Y-54696666D01*
X127733809Y-54696666D01*
X127924285Y-54744285D01*
X128019523Y-54791904D01*
X128114761Y-54887142D01*
X128162380Y-55030000D01*
X128162380Y-55268095D01*
X127257619Y-54315714D02*
X127210000Y-54268095D01*
X127162380Y-54172857D01*
X127162380Y-53934761D01*
X127210000Y-53839523D01*
X127257619Y-53791904D01*
X127352857Y-53744285D01*
X127448095Y-53744285D01*
X127590952Y-53791904D01*
X128162380Y-54363333D01*
X128162380Y-53744285D01*
X104716666Y-51928571D02*
X104383333Y-51928571D01*
X104383333Y-52452380D02*
X104383333Y-51452380D01*
X104859523Y-51452380D01*
X105764285Y-52452380D02*
X105192857Y-52452380D01*
X105478571Y-52452380D02*
X105478571Y-51452380D01*
X105383333Y-51595238D01*
X105288095Y-51690476D01*
X105192857Y-51738095D01*
X100789428Y-85234380D02*
X100789428Y-85948666D01*
X100741809Y-86091523D01*
X100646571Y-86186761D01*
X100503714Y-86234380D01*
X100408476Y-86234380D01*
X101789428Y-86234380D02*
X101218000Y-86234380D01*
X101503714Y-86234380D02*
X101503714Y-85234380D01*
X101408476Y-85377238D01*
X101313238Y-85472476D01*
X101218000Y-85520095D01*
X102218000Y-85853428D02*
X102979904Y-85853428D01*
X103932285Y-85234380D02*
X103456095Y-85234380D01*
X103408476Y-85710571D01*
X103456095Y-85662952D01*
X103551333Y-85615333D01*
X103789428Y-85615333D01*
X103884666Y-85662952D01*
X103932285Y-85710571D01*
X103979904Y-85805809D01*
X103979904Y-86043904D01*
X103932285Y-86139142D01*
X103884666Y-86186761D01*
X103789428Y-86234380D01*
X103551333Y-86234380D01*
X103456095Y-86186761D01*
X103408476Y-86139142D01*
X99512380Y-82716666D02*
X99036190Y-83050000D01*
X99512380Y-83288095D02*
X98512380Y-83288095D01*
X98512380Y-82907142D01*
X98560000Y-82811904D01*
X98607619Y-82764285D01*
X98702857Y-82716666D01*
X98845714Y-82716666D01*
X98940952Y-82764285D01*
X98988571Y-82811904D01*
X99036190Y-82907142D01*
X99036190Y-83288095D01*
X99512380Y-81764285D02*
X99512380Y-82335714D01*
X99512380Y-82050000D02*
X98512380Y-82050000D01*
X98655238Y-82145238D01*
X98750476Y-82240476D01*
X98798095Y-82335714D01*
X103576380Y-82716666D02*
X103100190Y-83050000D01*
X103576380Y-83288095D02*
X102576380Y-83288095D01*
X102576380Y-82907142D01*
X102624000Y-82811904D01*
X102671619Y-82764285D01*
X102766857Y-82716666D01*
X102909714Y-82716666D01*
X103004952Y-82764285D01*
X103052571Y-82811904D01*
X103100190Y-82907142D01*
X103100190Y-83288095D01*
X102671619Y-82335714D02*
X102624000Y-82288095D01*
X102576380Y-82192857D01*
X102576380Y-81954761D01*
X102624000Y-81859523D01*
X102671619Y-81811904D01*
X102766857Y-81764285D01*
X102862095Y-81764285D01*
X103004952Y-81811904D01*
X103576380Y-82383333D01*
X103576380Y-81764285D01*
X105998380Y-82770666D02*
X105522190Y-83104000D01*
X105998380Y-83342095D02*
X104998380Y-83342095D01*
X104998380Y-82961142D01*
X105046000Y-82865904D01*
X105093619Y-82818285D01*
X105188857Y-82770666D01*
X105331714Y-82770666D01*
X105426952Y-82818285D01*
X105474571Y-82865904D01*
X105522190Y-82961142D01*
X105522190Y-83342095D01*
X104998380Y-82437333D02*
X104998380Y-81818285D01*
X105379333Y-82151619D01*
X105379333Y-82008761D01*
X105426952Y-81913523D01*
X105474571Y-81865904D01*
X105569809Y-81818285D01*
X105807904Y-81818285D01*
X105903142Y-81865904D01*
X105950761Y-81913523D01*
X105998380Y-82008761D01*
X105998380Y-82294476D01*
X105950761Y-82389714D01*
X105903142Y-82437333D01*
X110180380Y-82708666D02*
X109704190Y-83042000D01*
X110180380Y-83280095D02*
X109180380Y-83280095D01*
X109180380Y-82899142D01*
X109228000Y-82803904D01*
X109275619Y-82756285D01*
X109370857Y-82708666D01*
X109513714Y-82708666D01*
X109608952Y-82756285D01*
X109656571Y-82803904D01*
X109704190Y-82899142D01*
X109704190Y-83280095D01*
X109513714Y-81851523D02*
X110180380Y-81851523D01*
X109132761Y-82089619D02*
X109847047Y-82327714D01*
X109847047Y-81708666D01*
X112410380Y-82720666D02*
X111934190Y-83054000D01*
X112410380Y-83292095D02*
X111410380Y-83292095D01*
X111410380Y-82911142D01*
X111458000Y-82815904D01*
X111505619Y-82768285D01*
X111600857Y-82720666D01*
X111743714Y-82720666D01*
X111838952Y-82768285D01*
X111886571Y-82815904D01*
X111934190Y-82911142D01*
X111934190Y-83292095D01*
X111410380Y-81815904D02*
X111410380Y-82292095D01*
X111886571Y-82339714D01*
X111838952Y-82292095D01*
X111791333Y-82196857D01*
X111791333Y-81958761D01*
X111838952Y-81863523D01*
X111886571Y-81815904D01*
X111981809Y-81768285D01*
X112219904Y-81768285D01*
X112315142Y-81815904D01*
X112362761Y-81863523D01*
X112410380Y-81958761D01*
X112410380Y-82196857D01*
X112362761Y-82292095D01*
X112315142Y-82339714D01*
X116570380Y-82620666D02*
X116094190Y-82954000D01*
X116570380Y-83192095D02*
X115570380Y-83192095D01*
X115570380Y-82811142D01*
X115618000Y-82715904D01*
X115665619Y-82668285D01*
X115760857Y-82620666D01*
X115903714Y-82620666D01*
X115998952Y-82668285D01*
X116046571Y-82715904D01*
X116094190Y-82811142D01*
X116094190Y-83192095D01*
X115570380Y-81763523D02*
X115570380Y-81954000D01*
X115618000Y-82049238D01*
X115665619Y-82096857D01*
X115808476Y-82192095D01*
X115998952Y-82239714D01*
X116379904Y-82239714D01*
X116475142Y-82192095D01*
X116522761Y-82144476D01*
X116570380Y-82049238D01*
X116570380Y-81858761D01*
X116522761Y-81763523D01*
X116475142Y-81715904D01*
X116379904Y-81668285D01*
X116141809Y-81668285D01*
X116046571Y-81715904D01*
X115998952Y-81763523D01*
X115951333Y-81858761D01*
X115951333Y-82049238D01*
X115998952Y-82144476D01*
X116046571Y-82192095D01*
X116141809Y-82239714D01*
X118706380Y-82620666D02*
X118230190Y-82954000D01*
X118706380Y-83192095D02*
X117706380Y-83192095D01*
X117706380Y-82811142D01*
X117754000Y-82715904D01*
X117801619Y-82668285D01*
X117896857Y-82620666D01*
X118039714Y-82620666D01*
X118134952Y-82668285D01*
X118182571Y-82715904D01*
X118230190Y-82811142D01*
X118230190Y-83192095D01*
X117706380Y-82287333D02*
X117706380Y-81620666D01*
X118706380Y-82049238D01*
X122626380Y-82716666D02*
X122150190Y-83050000D01*
X122626380Y-83288095D02*
X121626380Y-83288095D01*
X121626380Y-82907142D01*
X121674000Y-82811904D01*
X121721619Y-82764285D01*
X121816857Y-82716666D01*
X121959714Y-82716666D01*
X122054952Y-82764285D01*
X122102571Y-82811904D01*
X122150190Y-82907142D01*
X122150190Y-83288095D01*
X122054952Y-82145238D02*
X122007333Y-82240476D01*
X121959714Y-82288095D01*
X121864476Y-82335714D01*
X121816857Y-82335714D01*
X121721619Y-82288095D01*
X121674000Y-82240476D01*
X121626380Y-82145238D01*
X121626380Y-81954761D01*
X121674000Y-81859523D01*
X121721619Y-81811904D01*
X121816857Y-81764285D01*
X121864476Y-81764285D01*
X121959714Y-81811904D01*
X122007333Y-81859523D01*
X122054952Y-81954761D01*
X122054952Y-82145238D01*
X122102571Y-82240476D01*
X122150190Y-82288095D01*
X122245428Y-82335714D01*
X122435904Y-82335714D01*
X122531142Y-82288095D01*
X122578761Y-82240476D01*
X122626380Y-82145238D01*
X122626380Y-81954761D01*
X122578761Y-81859523D01*
X122531142Y-81811904D01*
X122435904Y-81764285D01*
X122245428Y-81764285D01*
X122150190Y-81811904D01*
X122102571Y-81859523D01*
X122054952Y-81954761D01*
X105422380Y-59276666D02*
X104946190Y-59610000D01*
X105422380Y-59848095D02*
X104422380Y-59848095D01*
X104422380Y-59467142D01*
X104470000Y-59371904D01*
X104517619Y-59324285D01*
X104612857Y-59276666D01*
X104755714Y-59276666D01*
X104850952Y-59324285D01*
X104898571Y-59371904D01*
X104946190Y-59467142D01*
X104946190Y-59848095D01*
X105422380Y-58800476D02*
X105422380Y-58610000D01*
X105374761Y-58514761D01*
X105327142Y-58467142D01*
X105184285Y-58371904D01*
X104993809Y-58324285D01*
X104612857Y-58324285D01*
X104517619Y-58371904D01*
X104470000Y-58419523D01*
X104422380Y-58514761D01*
X104422380Y-58705238D01*
X104470000Y-58800476D01*
X104517619Y-58848095D01*
X104612857Y-58895714D01*
X104850952Y-58895714D01*
X104946190Y-58848095D01*
X104993809Y-58800476D01*
X105041428Y-58705238D01*
X105041428Y-58514761D01*
X104993809Y-58419523D01*
X104946190Y-58371904D01*
X104850952Y-58324285D01*
X102582380Y-59802857D02*
X102106190Y-60136190D01*
X102582380Y-60374285D02*
X101582380Y-60374285D01*
X101582380Y-59993333D01*
X101630000Y-59898095D01*
X101677619Y-59850476D01*
X101772857Y-59802857D01*
X101915714Y-59802857D01*
X102010952Y-59850476D01*
X102058571Y-59898095D01*
X102106190Y-59993333D01*
X102106190Y-60374285D01*
X102582380Y-58850476D02*
X102582380Y-59421904D01*
X102582380Y-59136190D02*
X101582380Y-59136190D01*
X101725238Y-59231428D01*
X101820476Y-59326666D01*
X101868095Y-59421904D01*
X101582380Y-58231428D02*
X101582380Y-58136190D01*
X101630000Y-58040952D01*
X101677619Y-57993333D01*
X101772857Y-57945714D01*
X101963333Y-57898095D01*
X102201428Y-57898095D01*
X102391904Y-57945714D01*
X102487142Y-57993333D01*
X102534761Y-58040952D01*
X102582380Y-58136190D01*
X102582380Y-58231428D01*
X102534761Y-58326666D01*
X102487142Y-58374285D01*
X102391904Y-58421904D01*
X102201428Y-58469523D01*
X101963333Y-58469523D01*
X101772857Y-58421904D01*
X101677619Y-58374285D01*
X101630000Y-58326666D01*
X101582380Y-58231428D01*
X111262380Y-59802857D02*
X110786190Y-60136190D01*
X111262380Y-60374285D02*
X110262380Y-60374285D01*
X110262380Y-59993333D01*
X110310000Y-59898095D01*
X110357619Y-59850476D01*
X110452857Y-59802857D01*
X110595714Y-59802857D01*
X110690952Y-59850476D01*
X110738571Y-59898095D01*
X110786190Y-59993333D01*
X110786190Y-60374285D01*
X111262380Y-58850476D02*
X111262380Y-59421904D01*
X111262380Y-59136190D02*
X110262380Y-59136190D01*
X110405238Y-59231428D01*
X110500476Y-59326666D01*
X110548095Y-59421904D01*
X111262380Y-57898095D02*
X111262380Y-58469523D01*
X111262380Y-58183809D02*
X110262380Y-58183809D01*
X110405238Y-58279047D01*
X110500476Y-58374285D01*
X110548095Y-58469523D01*
X108322380Y-59802857D02*
X107846190Y-60136190D01*
X108322380Y-60374285D02*
X107322380Y-60374285D01*
X107322380Y-59993333D01*
X107370000Y-59898095D01*
X107417619Y-59850476D01*
X107512857Y-59802857D01*
X107655714Y-59802857D01*
X107750952Y-59850476D01*
X107798571Y-59898095D01*
X107846190Y-59993333D01*
X107846190Y-60374285D01*
X108322380Y-58850476D02*
X108322380Y-59421904D01*
X108322380Y-59136190D02*
X107322380Y-59136190D01*
X107465238Y-59231428D01*
X107560476Y-59326666D01*
X107608095Y-59421904D01*
X107417619Y-58469523D02*
X107370000Y-58421904D01*
X107322380Y-58326666D01*
X107322380Y-58088571D01*
X107370000Y-57993333D01*
X107417619Y-57945714D01*
X107512857Y-57898095D01*
X107608095Y-57898095D01*
X107750952Y-57945714D01*
X108322380Y-58517142D01*
X108322380Y-57898095D01*
X119842381Y-55697856D02*
X119366191Y-56031189D01*
X119842381Y-56269284D02*
X118842381Y-56269284D01*
X118842381Y-55888332D01*
X118890001Y-55793094D01*
X118937620Y-55745475D01*
X119032858Y-55697856D01*
X119175715Y-55697856D01*
X119270953Y-55745475D01*
X119318572Y-55793094D01*
X119366191Y-55888332D01*
X119366191Y-56269284D01*
X119842381Y-54745475D02*
X119842381Y-55316903D01*
X119842381Y-55031189D02*
X118842381Y-55031189D01*
X118985239Y-55126427D01*
X119080477Y-55221665D01*
X119128096Y-55316903D01*
X118842381Y-54412141D02*
X118842381Y-53793094D01*
X119223334Y-54126427D01*
X119223334Y-53983570D01*
X119270953Y-53888332D01*
X119318572Y-53840713D01*
X119413810Y-53793094D01*
X119651905Y-53793094D01*
X119747143Y-53840713D01*
X119794762Y-53888332D01*
X119842381Y-53983570D01*
X119842381Y-54269284D01*
X119794762Y-54364522D01*
X119747143Y-54412141D01*
X121942380Y-55872857D02*
X121466190Y-56206190D01*
X121942380Y-56444285D02*
X120942380Y-56444285D01*
X120942380Y-56063333D01*
X120990000Y-55968095D01*
X121037619Y-55920476D01*
X121132857Y-55872857D01*
X121275714Y-55872857D01*
X121370952Y-55920476D01*
X121418571Y-55968095D01*
X121466190Y-56063333D01*
X121466190Y-56444285D01*
X121942380Y-54920476D02*
X121942380Y-55491904D01*
X121942380Y-55206190D02*
X120942380Y-55206190D01*
X121085238Y-55301428D01*
X121180476Y-55396666D01*
X121228095Y-55491904D01*
X121275714Y-54063333D02*
X121942380Y-54063333D01*
X120894761Y-54301428D02*
X121609047Y-54539523D01*
X121609047Y-53920476D01*
X106732380Y-65962857D02*
X106256190Y-66296190D01*
X106732380Y-66534285D02*
X105732380Y-66534285D01*
X105732380Y-66153333D01*
X105780000Y-66058095D01*
X105827619Y-66010476D01*
X105922857Y-65962857D01*
X106065714Y-65962857D01*
X106160952Y-66010476D01*
X106208571Y-66058095D01*
X106256190Y-66153333D01*
X106256190Y-66534285D01*
X106732380Y-65010476D02*
X106732380Y-65581904D01*
X106732380Y-65296190D02*
X105732380Y-65296190D01*
X105875238Y-65391428D01*
X105970476Y-65486666D01*
X106018095Y-65581904D01*
X105732380Y-64105714D02*
X105732380Y-64581904D01*
X106208571Y-64629523D01*
X106160952Y-64581904D01*
X106113333Y-64486666D01*
X106113333Y-64248571D01*
X106160952Y-64153333D01*
X106208571Y-64105714D01*
X106303809Y-64058095D01*
X106541904Y-64058095D01*
X106637142Y-64105714D01*
X106684761Y-64153333D01*
X106732380Y-64248571D01*
X106732380Y-64486666D01*
X106684761Y-64581904D01*
X106637142Y-64629523D01*
X95902380Y-64472857D02*
X95426190Y-64806190D01*
X95902380Y-65044285D02*
X94902380Y-65044285D01*
X94902380Y-64663333D01*
X94950000Y-64568095D01*
X94997619Y-64520476D01*
X95092857Y-64472857D01*
X95235714Y-64472857D01*
X95330952Y-64520476D01*
X95378571Y-64568095D01*
X95426190Y-64663333D01*
X95426190Y-65044285D01*
X95902380Y-63520476D02*
X95902380Y-64091904D01*
X95902380Y-63806190D02*
X94902380Y-63806190D01*
X95045238Y-63901428D01*
X95140476Y-63996666D01*
X95188095Y-64091904D01*
X94902380Y-62663333D02*
X94902380Y-62853809D01*
X94950000Y-62949047D01*
X94997619Y-62996666D01*
X95140476Y-63091904D01*
X95330952Y-63139523D01*
X95711904Y-63139523D01*
X95807142Y-63091904D01*
X95854761Y-63044285D01*
X95902380Y-62949047D01*
X95902380Y-62758571D01*
X95854761Y-62663333D01*
X95807142Y-62615714D01*
X95711904Y-62568095D01*
X95473809Y-62568095D01*
X95378571Y-62615714D01*
X95330952Y-62663333D01*
X95283333Y-62758571D01*
X95283333Y-62949047D01*
X95330952Y-63044285D01*
X95378571Y-63091904D01*
X95473809Y-63139523D01*
X126242380Y-65762857D02*
X125766190Y-66096190D01*
X126242380Y-66334285D02*
X125242380Y-66334285D01*
X125242380Y-65953333D01*
X125290000Y-65858095D01*
X125337619Y-65810476D01*
X125432857Y-65762857D01*
X125575714Y-65762857D01*
X125670952Y-65810476D01*
X125718571Y-65858095D01*
X125766190Y-65953333D01*
X125766190Y-66334285D01*
X126242380Y-64810476D02*
X126242380Y-65381904D01*
X126242380Y-65096190D02*
X125242380Y-65096190D01*
X125385238Y-65191428D01*
X125480476Y-65286666D01*
X125528095Y-65381904D01*
X125242380Y-64477142D02*
X125242380Y-63810476D01*
X126242380Y-64239047D01*
X115842380Y-64372857D02*
X115366190Y-64706190D01*
X115842380Y-64944285D02*
X114842380Y-64944285D01*
X114842380Y-64563333D01*
X114890000Y-64468095D01*
X114937619Y-64420476D01*
X115032857Y-64372857D01*
X115175714Y-64372857D01*
X115270952Y-64420476D01*
X115318571Y-64468095D01*
X115366190Y-64563333D01*
X115366190Y-64944285D01*
X115842380Y-63420476D02*
X115842380Y-63991904D01*
X115842380Y-63706190D02*
X114842380Y-63706190D01*
X114985238Y-63801428D01*
X115080476Y-63896666D01*
X115128095Y-63991904D01*
X115270952Y-62849047D02*
X115223333Y-62944285D01*
X115175714Y-62991904D01*
X115080476Y-63039523D01*
X115032857Y-63039523D01*
X114937619Y-62991904D01*
X114890000Y-62944285D01*
X114842380Y-62849047D01*
X114842380Y-62658571D01*
X114890000Y-62563333D01*
X114937619Y-62515714D01*
X115032857Y-62468095D01*
X115080476Y-62468095D01*
X115175714Y-62515714D01*
X115223333Y-62563333D01*
X115270952Y-62658571D01*
X115270952Y-62849047D01*
X115318571Y-62944285D01*
X115366190Y-62991904D01*
X115461428Y-63039523D01*
X115651904Y-63039523D01*
X115747142Y-62991904D01*
X115794761Y-62944285D01*
X115842380Y-62849047D01*
X115842380Y-62658571D01*
X115794761Y-62563333D01*
X115747142Y-62515714D01*
X115651904Y-62468095D01*
X115461428Y-62468095D01*
X115366190Y-62515714D01*
X115318571Y-62563333D01*
X115270952Y-62658571D01*
X108462380Y-65862857D02*
X107986190Y-66196190D01*
X108462380Y-66434285D02*
X107462380Y-66434285D01*
X107462380Y-66053333D01*
X107510000Y-65958095D01*
X107557619Y-65910476D01*
X107652857Y-65862857D01*
X107795714Y-65862857D01*
X107890952Y-65910476D01*
X107938571Y-65958095D01*
X107986190Y-66053333D01*
X107986190Y-66434285D01*
X108462380Y-64910476D02*
X108462380Y-65481904D01*
X108462380Y-65196190D02*
X107462380Y-65196190D01*
X107605238Y-65291428D01*
X107700476Y-65386666D01*
X107748095Y-65481904D01*
X108462380Y-64434285D02*
X108462380Y-64243809D01*
X108414761Y-64148571D01*
X108367142Y-64100952D01*
X108224285Y-64005714D01*
X108033809Y-63958095D01*
X107652857Y-63958095D01*
X107557619Y-64005714D01*
X107510000Y-64053333D01*
X107462380Y-64148571D01*
X107462380Y-64339047D01*
X107510000Y-64434285D01*
X107557619Y-64481904D01*
X107652857Y-64529523D01*
X107890952Y-64529523D01*
X107986190Y-64481904D01*
X108033809Y-64434285D01*
X108081428Y-64339047D01*
X108081428Y-64148571D01*
X108033809Y-64053333D01*
X107986190Y-64005714D01*
X107890952Y-63958095D01*
X94132380Y-64452857D02*
X93656190Y-64786190D01*
X94132380Y-65024285D02*
X93132380Y-65024285D01*
X93132380Y-64643333D01*
X93180000Y-64548095D01*
X93227619Y-64500476D01*
X93322857Y-64452857D01*
X93465714Y-64452857D01*
X93560952Y-64500476D01*
X93608571Y-64548095D01*
X93656190Y-64643333D01*
X93656190Y-65024285D01*
X93227619Y-64071904D02*
X93180000Y-64024285D01*
X93132380Y-63929047D01*
X93132380Y-63690952D01*
X93180000Y-63595714D01*
X93227619Y-63548095D01*
X93322857Y-63500476D01*
X93418095Y-63500476D01*
X93560952Y-63548095D01*
X94132380Y-64119523D01*
X94132380Y-63500476D01*
X93132380Y-62881428D02*
X93132380Y-62786190D01*
X93180000Y-62690952D01*
X93227619Y-62643333D01*
X93322857Y-62595714D01*
X93513333Y-62548095D01*
X93751428Y-62548095D01*
X93941904Y-62595714D01*
X94037142Y-62643333D01*
X94084761Y-62690952D01*
X94132380Y-62786190D01*
X94132380Y-62881428D01*
X94084761Y-62976666D01*
X94037142Y-63024285D01*
X93941904Y-63071904D01*
X93751428Y-63119523D01*
X93513333Y-63119523D01*
X93322857Y-63071904D01*
X93227619Y-63024285D01*
X93180000Y-62976666D01*
X93132380Y-62881428D01*
X127902380Y-65802857D02*
X127426190Y-66136190D01*
X127902380Y-66374285D02*
X126902380Y-66374285D01*
X126902380Y-65993333D01*
X126950000Y-65898095D01*
X126997619Y-65850476D01*
X127092857Y-65802857D01*
X127235714Y-65802857D01*
X127330952Y-65850476D01*
X127378571Y-65898095D01*
X127426190Y-65993333D01*
X127426190Y-66374285D01*
X126997619Y-65421904D02*
X126950000Y-65374285D01*
X126902380Y-65279047D01*
X126902380Y-65040952D01*
X126950000Y-64945714D01*
X126997619Y-64898095D01*
X127092857Y-64850476D01*
X127188095Y-64850476D01*
X127330952Y-64898095D01*
X127902380Y-65469523D01*
X127902380Y-64850476D01*
X127902380Y-63898095D02*
X127902380Y-64469523D01*
X127902380Y-64183809D02*
X126902380Y-64183809D01*
X127045238Y-64279047D01*
X127140476Y-64374285D01*
X127188095Y-64469523D01*
X114032380Y-64342857D02*
X113556190Y-64676190D01*
X114032380Y-64914285D02*
X113032380Y-64914285D01*
X113032380Y-64533333D01*
X113080000Y-64438095D01*
X113127619Y-64390476D01*
X113222857Y-64342857D01*
X113365714Y-64342857D01*
X113460952Y-64390476D01*
X113508571Y-64438095D01*
X113556190Y-64533333D01*
X113556190Y-64914285D01*
X113127619Y-63961904D02*
X113080000Y-63914285D01*
X113032380Y-63819047D01*
X113032380Y-63580952D01*
X113080000Y-63485714D01*
X113127619Y-63438095D01*
X113222857Y-63390476D01*
X113318095Y-63390476D01*
X113460952Y-63438095D01*
X114032380Y-64009523D01*
X114032380Y-63390476D01*
X113127619Y-63009523D02*
X113080000Y-62961904D01*
X113032380Y-62866666D01*
X113032380Y-62628571D01*
X113080000Y-62533333D01*
X113127619Y-62485714D01*
X113222857Y-62438095D01*
X113318095Y-62438095D01*
X113460952Y-62485714D01*
X114032380Y-63057142D01*
X114032380Y-62438095D01*
X125982380Y-55692857D02*
X125506190Y-56026190D01*
X125982380Y-56264285D02*
X124982380Y-56264285D01*
X124982380Y-55883333D01*
X125030000Y-55788095D01*
X125077619Y-55740476D01*
X125172857Y-55692857D01*
X125315714Y-55692857D01*
X125410952Y-55740476D01*
X125458571Y-55788095D01*
X125506190Y-55883333D01*
X125506190Y-56264285D01*
X125077619Y-55311904D02*
X125030000Y-55264285D01*
X124982380Y-55169047D01*
X124982380Y-54930952D01*
X125030000Y-54835714D01*
X125077619Y-54788095D01*
X125172857Y-54740476D01*
X125268095Y-54740476D01*
X125410952Y-54788095D01*
X125982380Y-55359523D01*
X125982380Y-54740476D01*
X124982380Y-54407142D02*
X124982380Y-53788095D01*
X125363333Y-54121428D01*
X125363333Y-53978571D01*
X125410952Y-53883333D01*
X125458571Y-53835714D01*
X125553809Y-53788095D01*
X125791904Y-53788095D01*
X125887142Y-53835714D01*
X125934761Y-53883333D01*
X125982380Y-53978571D01*
X125982380Y-54264285D01*
X125934761Y-54359523D01*
X125887142Y-54407142D01*
X129952380Y-55852857D02*
X129476190Y-56186190D01*
X129952380Y-56424285D02*
X128952380Y-56424285D01*
X128952380Y-56043333D01*
X129000000Y-55948095D01*
X129047619Y-55900476D01*
X129142857Y-55852857D01*
X129285714Y-55852857D01*
X129380952Y-55900476D01*
X129428571Y-55948095D01*
X129476190Y-56043333D01*
X129476190Y-56424285D01*
X129047619Y-55471904D02*
X129000000Y-55424285D01*
X128952380Y-55329047D01*
X128952380Y-55090952D01*
X129000000Y-54995714D01*
X129047619Y-54948095D01*
X129142857Y-54900476D01*
X129238095Y-54900476D01*
X129380952Y-54948095D01*
X129952380Y-55519523D01*
X129952380Y-54900476D01*
X129285714Y-54043333D02*
X129952380Y-54043333D01*
X128904761Y-54281428D02*
X129619047Y-54519523D01*
X129619047Y-53900476D01*
X99788095Y-62132380D02*
X99788095Y-62941904D01*
X99835714Y-63037142D01*
X99883333Y-63084761D01*
X99978571Y-63132380D01*
X100169047Y-63132380D01*
X100264285Y-63084761D01*
X100311904Y-63037142D01*
X100359523Y-62941904D01*
X100359523Y-62132380D01*
X101359523Y-63132380D02*
X100788095Y-63132380D01*
X101073809Y-63132380D02*
X101073809Y-62132380D01*
X100978571Y-62275238D01*
X100883333Y-62370476D01*
X100788095Y-62418095D01*
X119758095Y-62172380D02*
X119758095Y-62981904D01*
X119805714Y-63077142D01*
X119853333Y-63124761D01*
X119948571Y-63172380D01*
X120139047Y-63172380D01*
X120234285Y-63124761D01*
X120281904Y-63077142D01*
X120329523Y-62981904D01*
X120329523Y-62172380D01*
X120758095Y-62267619D02*
X120805714Y-62220000D01*
X120900952Y-62172380D01*
X121139047Y-62172380D01*
X121234285Y-62220000D01*
X121281904Y-62267619D01*
X121329523Y-62362857D01*
X121329523Y-62458095D01*
X121281904Y-62600952D01*
X120710476Y-63172380D01*
X121329523Y-63172380D01*
X110351666Y-44982380D02*
X110351666Y-45696666D01*
X110304047Y-45839523D01*
X110208809Y-45934761D01*
X110065952Y-45982380D01*
X109970714Y-45982380D01*
X111256428Y-44982380D02*
X111065952Y-44982380D01*
X110970714Y-45030000D01*
X110923095Y-45077619D01*
X110827857Y-45220476D01*
X110780238Y-45410952D01*
X110780238Y-45791904D01*
X110827857Y-45887142D01*
X110875476Y-45934761D01*
X110970714Y-45982380D01*
X111161190Y-45982380D01*
X111256428Y-45934761D01*
X111304047Y-45887142D01*
X111351666Y-45791904D01*
X111351666Y-45553809D01*
X111304047Y-45458571D01*
X111256428Y-45410952D01*
X111161190Y-45363333D01*
X110970714Y-45363333D01*
X110875476Y-45410952D01*
X110827857Y-45458571D01*
X110780238Y-45553809D01*
M02*
