M48
METRIC,TZ
T1C0.400
T2C1.000
T3C1.350
T4C3.200
%
G90
G05
T1
X93620Y-64780
X94530Y-70420
X96130Y-71030
X99390Y-66440
X100360Y-75560
X100450Y-72100
X101370Y-63640
X101430Y-70300
X104270Y-79450
X105436Y-76860
X108010Y-65980
X108180Y-71370
X109360Y-56410
X109580Y-64360
X111060Y-71060
X113550Y-64650
X113730Y-73050
X114010Y-76780
X117240Y-73110
X119540Y-69280
X119640Y-72100
X120190Y-75670
X120660Y-73120
X120930Y-63340
X121310Y-47720
X121450Y-71160
X123210Y-48760
X125470Y-76790
X125550Y-48890
X127360Y-71300
X127510Y-65890
X128980Y-76090
X129030Y-77190
X129440Y-54180
T2
X100990Y-42730
X102375Y-39890
X103760Y-42730
X105145Y-39890
X106530Y-42730
X107915Y-39890
X109300Y-42730
X110685Y-39890
X112070Y-42730
X113455Y-39890
X114840Y-42730
X116225Y-39890
X117610Y-42730
X118995Y-39890
X120380Y-42730
X105750Y-85750
X108290Y-85750
X110830Y-85750
X113370Y-85750
X115910Y-85750
T3
X94950Y-53230
X99950Y-53230
X109950Y-53230
X114950Y-53230
T4
X94035Y-41310
X127335Y-41310
T0
M30
