G04 #@! TF.GenerationSoftware,KiCad,Pcbnew,(5.1.4)-1*
G04 #@! TF.CreationDate,2021-07-27T11:29:55-04:00*
G04 #@! TF.ProjectId,9000 Clock Module,39303030-2043-46c6-9f63-6b204d6f6475,rev?*
G04 #@! TF.SameCoordinates,Original*
G04 #@! TF.FileFunction,Paste,Top*
G04 #@! TF.FilePolarity,Positive*
%FSLAX46Y46*%
G04 Gerber Fmt 4.6, Leading zero omitted, Abs format (unit mm)*
G04 Created by KiCad (PCBNEW (5.1.4)-1) date 2021-07-27 11:29:55*
%MOMM*%
%LPD*%
G04 APERTURE LIST*
%ADD10R,0.900000X1.200000*%
%ADD11R,1.200000X0.900000*%
%ADD12R,0.900000X0.800000*%
%ADD13R,1.500000X0.600000*%
G04 APERTURE END LIST*
D10*
X101092000Y-80602000D03*
X101092000Y-78402000D03*
X107566000Y-78354000D03*
X107566000Y-80554000D03*
X114018000Y-80514000D03*
X114018000Y-78314000D03*
X120104000Y-80494000D03*
X120104000Y-78294000D03*
X111740000Y-68390000D03*
X111740000Y-66190000D03*
D11*
X104170000Y-74150000D03*
X101970000Y-74150000D03*
X99650000Y-74150000D03*
X97450000Y-74150000D03*
X121830000Y-74240000D03*
X124030000Y-74240000D03*
X117300000Y-74230000D03*
X119500000Y-74230000D03*
D10*
X129290000Y-69770000D03*
X129290000Y-67570000D03*
X91800000Y-66410000D03*
X91800000Y-68610000D03*
X109800000Y-69780000D03*
X109800000Y-67580000D03*
D12*
X109580000Y-73790000D03*
X109580000Y-71890000D03*
X107580000Y-72840000D03*
X94530000Y-71780000D03*
X92530000Y-72730000D03*
X92530000Y-70830000D03*
X128960000Y-73780000D03*
X128960000Y-71880000D03*
X126960000Y-72830000D03*
X114460000Y-71410000D03*
X112460000Y-72360000D03*
X112460000Y-70460000D03*
D10*
X123460000Y-50420000D03*
X123460000Y-52620000D03*
X127650000Y-52630000D03*
X127650000Y-50430000D03*
X99060000Y-78402000D03*
X99060000Y-80602000D03*
X103124000Y-80602000D03*
X103124000Y-78402000D03*
X105436000Y-80554000D03*
X105436000Y-78354000D03*
X109728000Y-78402000D03*
X109728000Y-80602000D03*
X111908000Y-78314000D03*
X111908000Y-80514000D03*
X116118000Y-80514000D03*
X116118000Y-78314000D03*
X118124000Y-78294000D03*
X118124000Y-80494000D03*
X122164000Y-78314000D03*
X122164000Y-80514000D03*
X103520000Y-60210000D03*
X103520000Y-58010000D03*
X100680000Y-58060000D03*
X100680000Y-60260000D03*
X109360000Y-60260000D03*
X109360000Y-58060000D03*
X106420000Y-58060000D03*
X106420000Y-60260000D03*
X119360000Y-50390000D03*
X119360000Y-52590000D03*
X121440000Y-52620000D03*
X121440000Y-50420000D03*
X106220000Y-69750000D03*
X106220000Y-67550000D03*
X95490000Y-66390000D03*
X95490000Y-68590000D03*
X125790000Y-69770000D03*
X125790000Y-67570000D03*
X115430000Y-66200000D03*
X115430000Y-68400000D03*
X108010000Y-69780000D03*
X108010000Y-67580000D03*
X93630000Y-66410000D03*
X93630000Y-68610000D03*
X127510000Y-69820000D03*
X127510000Y-67620000D03*
X113550000Y-68390000D03*
X113550000Y-66190000D03*
X125570000Y-50420000D03*
X125570000Y-52620000D03*
X129570000Y-50390000D03*
X129570000Y-52590000D03*
D13*
X97970000Y-71980000D03*
X97970000Y-70710000D03*
X97970000Y-69440000D03*
X97970000Y-68170000D03*
X97970000Y-66900000D03*
X97970000Y-65630000D03*
X97970000Y-64360000D03*
X103370000Y-64360000D03*
X103370000Y-65630000D03*
X103370000Y-66900000D03*
X103370000Y-68170000D03*
X103370000Y-69440000D03*
X103370000Y-70710000D03*
X103370000Y-71980000D03*
X123210000Y-71990000D03*
X123210000Y-70720000D03*
X123210000Y-69450000D03*
X123210000Y-68180000D03*
X123210000Y-66910000D03*
X123210000Y-65640000D03*
X123210000Y-64370000D03*
X117810000Y-64370000D03*
X117810000Y-65640000D03*
X117810000Y-66910000D03*
X117810000Y-68180000D03*
X117810000Y-69450000D03*
X117810000Y-70720000D03*
X117810000Y-71990000D03*
M02*
