G04 #@! TF.GenerationSoftware,KiCad,Pcbnew,(5.1.4)-1*
G04 #@! TF.CreationDate,2021-07-27T11:29:55-04:00*
G04 #@! TF.ProjectId,9000 Clock Module,39303030-2043-46c6-9f63-6b204d6f6475,rev?*
G04 #@! TF.SameCoordinates,Original*
G04 #@! TF.FileFunction,Legend,Bot*
G04 #@! TF.FilePolarity,Positive*
%FSLAX46Y46*%
G04 Gerber Fmt 4.6, Leading zero omitted, Abs format (unit mm)*
G04 Created by KiCad (PCBNEW (5.1.4)-1) date 2021-07-27 11:29:55*
%MOMM*%
%LPD*%
G04 APERTURE LIST*
%ADD10C,0.150000*%
%ADD11C,0.500000*%
%ADD12C,0.300000*%
G04 APERTURE END LIST*
D10*
X114643333Y-62626666D02*
X114167142Y-62626666D01*
X114738571Y-62912380D02*
X114405238Y-61912380D01*
X114071904Y-62912380D01*
X113786190Y-62864761D02*
X113690952Y-62912380D01*
X113500476Y-62912380D01*
X113405238Y-62864761D01*
X113357619Y-62769523D01*
X113357619Y-62721904D01*
X113405238Y-62626666D01*
X113500476Y-62579047D01*
X113643333Y-62579047D01*
X113738571Y-62531428D01*
X113786190Y-62436190D01*
X113786190Y-62388571D01*
X113738571Y-62293333D01*
X113643333Y-62245714D01*
X113500476Y-62245714D01*
X113405238Y-62293333D01*
X113024285Y-62245714D02*
X112786190Y-62912380D01*
X112548095Y-62245714D02*
X112786190Y-62912380D01*
X112881428Y-63150476D01*
X112929047Y-63198095D01*
X113024285Y-63245714D01*
X112167142Y-62245714D02*
X112167142Y-62912380D01*
X112167142Y-62340952D02*
X112119523Y-62293333D01*
X112024285Y-62245714D01*
X111881428Y-62245714D01*
X111786190Y-62293333D01*
X111738571Y-62388571D01*
X111738571Y-62912380D01*
X110833809Y-62864761D02*
X110929047Y-62912380D01*
X111119523Y-62912380D01*
X111214761Y-62864761D01*
X111262380Y-62817142D01*
X111310000Y-62721904D01*
X111310000Y-62436190D01*
X111262380Y-62340952D01*
X111214761Y-62293333D01*
X111119523Y-62245714D01*
X110929047Y-62245714D01*
X110833809Y-62293333D01*
X110405238Y-62912380D02*
X110405238Y-61912380D01*
X109976666Y-62912380D02*
X109976666Y-62388571D01*
X110024285Y-62293333D01*
X110119523Y-62245714D01*
X110262380Y-62245714D01*
X110357619Y-62293333D01*
X110405238Y-62340952D01*
X109500476Y-62912380D02*
X109500476Y-62245714D01*
X109500476Y-62436190D02*
X109452857Y-62340952D01*
X109405238Y-62293333D01*
X109310000Y-62245714D01*
X109214761Y-62245714D01*
X108738571Y-62912380D02*
X108833809Y-62864761D01*
X108881428Y-62817142D01*
X108929047Y-62721904D01*
X108929047Y-62436190D01*
X108881428Y-62340952D01*
X108833809Y-62293333D01*
X108738571Y-62245714D01*
X108595714Y-62245714D01*
X108500476Y-62293333D01*
X108452857Y-62340952D01*
X108405238Y-62436190D01*
X108405238Y-62721904D01*
X108452857Y-62817142D01*
X108500476Y-62864761D01*
X108595714Y-62912380D01*
X108738571Y-62912380D01*
X107976666Y-62245714D02*
X107976666Y-62912380D01*
X107976666Y-62340952D02*
X107929047Y-62293333D01*
X107833809Y-62245714D01*
X107690952Y-62245714D01*
X107595714Y-62293333D01*
X107548095Y-62388571D01*
X107548095Y-62912380D01*
X106929047Y-62912380D02*
X107024285Y-62864761D01*
X107071904Y-62817142D01*
X107119523Y-62721904D01*
X107119523Y-62436190D01*
X107071904Y-62340952D01*
X107024285Y-62293333D01*
X106929047Y-62245714D01*
X106786190Y-62245714D01*
X106690952Y-62293333D01*
X106643333Y-62340952D01*
X106595714Y-62436190D01*
X106595714Y-62721904D01*
X106643333Y-62817142D01*
X106690952Y-62864761D01*
X106786190Y-62912380D01*
X106929047Y-62912380D01*
X105738571Y-62245714D02*
X105738571Y-62912380D01*
X106167142Y-62245714D02*
X106167142Y-62769523D01*
X106119523Y-62864761D01*
X106024285Y-62912380D01*
X105881428Y-62912380D01*
X105786190Y-62864761D01*
X105738571Y-62817142D01*
X105310000Y-62864761D02*
X105214761Y-62912380D01*
X105024285Y-62912380D01*
X104929047Y-62864761D01*
X104881428Y-62769523D01*
X104881428Y-62721904D01*
X104929047Y-62626666D01*
X105024285Y-62579047D01*
X105167142Y-62579047D01*
X105262380Y-62531428D01*
X105310000Y-62436190D01*
X105310000Y-62388571D01*
X105262380Y-62293333D01*
X105167142Y-62245714D01*
X105024285Y-62245714D01*
X104929047Y-62293333D01*
X103119523Y-62817142D02*
X103167142Y-62864761D01*
X103310000Y-62912380D01*
X103405238Y-62912380D01*
X103548095Y-62864761D01*
X103643333Y-62769523D01*
X103690952Y-62674285D01*
X103738571Y-62483809D01*
X103738571Y-62340952D01*
X103690952Y-62150476D01*
X103643333Y-62055238D01*
X103548095Y-61960000D01*
X103405238Y-61912380D01*
X103310000Y-61912380D01*
X103167142Y-61960000D01*
X103119523Y-62007619D01*
X102548095Y-62912380D02*
X102643333Y-62864761D01*
X102690952Y-62769523D01*
X102690952Y-61912380D01*
X102024285Y-62912380D02*
X102119523Y-62864761D01*
X102167142Y-62817142D01*
X102214761Y-62721904D01*
X102214761Y-62436190D01*
X102167142Y-62340952D01*
X102119523Y-62293333D01*
X102024285Y-62245714D01*
X101881428Y-62245714D01*
X101786190Y-62293333D01*
X101738571Y-62340952D01*
X101690952Y-62436190D01*
X101690952Y-62721904D01*
X101738571Y-62817142D01*
X101786190Y-62864761D01*
X101881428Y-62912380D01*
X102024285Y-62912380D01*
X100833809Y-62864761D02*
X100929047Y-62912380D01*
X101119523Y-62912380D01*
X101214761Y-62864761D01*
X101262380Y-62817142D01*
X101310000Y-62721904D01*
X101310000Y-62436190D01*
X101262380Y-62340952D01*
X101214761Y-62293333D01*
X101119523Y-62245714D01*
X100929047Y-62245714D01*
X100833809Y-62293333D01*
X100405238Y-62912380D02*
X100405238Y-61912380D01*
X100310000Y-62531428D02*
X100024285Y-62912380D01*
X100024285Y-62245714D02*
X100405238Y-62626666D01*
X98833809Y-62912380D02*
X98833809Y-61912380D01*
X98452857Y-61912380D01*
X98357619Y-61960000D01*
X98310000Y-62007619D01*
X98262380Y-62102857D01*
X98262380Y-62245714D01*
X98310000Y-62340952D01*
X98357619Y-62388571D01*
X98452857Y-62436190D01*
X98833809Y-62436190D01*
X97833809Y-62912380D02*
X97833809Y-62245714D01*
X97833809Y-62436190D02*
X97786190Y-62340952D01*
X97738571Y-62293333D01*
X97643333Y-62245714D01*
X97548095Y-62245714D01*
X97071904Y-62912380D02*
X97167142Y-62864761D01*
X97214761Y-62817142D01*
X97262380Y-62721904D01*
X97262380Y-62436190D01*
X97214761Y-62340952D01*
X97167142Y-62293333D01*
X97071904Y-62245714D01*
X96929047Y-62245714D01*
X96833809Y-62293333D01*
X96786190Y-62340952D01*
X96738571Y-62436190D01*
X96738571Y-62721904D01*
X96786190Y-62817142D01*
X96833809Y-62864761D01*
X96929047Y-62912380D01*
X97071904Y-62912380D01*
X96310000Y-62912380D02*
X96310000Y-61912380D01*
X96310000Y-62293333D02*
X96214761Y-62245714D01*
X96024285Y-62245714D01*
X95929047Y-62293333D01*
X95881428Y-62340952D01*
X95833809Y-62436190D01*
X95833809Y-62721904D01*
X95881428Y-62817142D01*
X95929047Y-62864761D01*
X96024285Y-62912380D01*
X96214761Y-62912380D01*
X96310000Y-62864761D01*
X95024285Y-62864761D02*
X95119523Y-62912380D01*
X95310000Y-62912380D01*
X95405238Y-62864761D01*
X95452857Y-62769523D01*
X95452857Y-62388571D01*
X95405238Y-62293333D01*
X95310000Y-62245714D01*
X95119523Y-62245714D01*
X95024285Y-62293333D01*
X94976666Y-62388571D01*
X94976666Y-62483809D01*
X95452857Y-62579047D01*
D11*
X128072767Y-61039523D02*
X127310863Y-61039523D01*
X126906101Y-60849047D01*
X126691815Y-60658571D01*
X126239434Y-60087142D01*
X125953720Y-59325238D01*
X125763244Y-57801428D01*
X125906101Y-57420476D01*
X126072767Y-57230000D01*
X126429910Y-57039523D01*
X127191815Y-57039523D01*
X127596577Y-57230000D01*
X127810863Y-57420476D01*
X128048958Y-57801428D01*
X128168005Y-58753809D01*
X128025148Y-59134761D01*
X127858482Y-59325238D01*
X127501339Y-59515714D01*
X126739434Y-59515714D01*
X126334672Y-59325238D01*
X126120386Y-59134761D01*
X125882291Y-58753809D01*
X123191815Y-57039523D02*
X122810863Y-57039523D01*
X122453720Y-57230000D01*
X122287053Y-57420476D01*
X122144196Y-57801428D01*
X122048958Y-58563333D01*
X122168005Y-59515714D01*
X122453720Y-60277619D01*
X122691815Y-60658571D01*
X122906101Y-60849047D01*
X123310863Y-61039523D01*
X123691815Y-61039523D01*
X124048958Y-60849047D01*
X124215625Y-60658571D01*
X124358482Y-60277619D01*
X124453720Y-59515714D01*
X124334672Y-58563333D01*
X124048958Y-57801428D01*
X123810863Y-57420476D01*
X123596577Y-57230000D01*
X123191815Y-57039523D01*
X119382291Y-57039523D02*
X119001339Y-57039523D01*
X118644196Y-57230000D01*
X118477529Y-57420476D01*
X118334672Y-57801428D01*
X118239434Y-58563333D01*
X118358482Y-59515714D01*
X118644196Y-60277619D01*
X118882291Y-60658571D01*
X119096577Y-60849047D01*
X119501339Y-61039523D01*
X119882291Y-61039523D01*
X120239434Y-60849047D01*
X120406101Y-60658571D01*
X120548958Y-60277619D01*
X120644196Y-59515714D01*
X120525148Y-58563333D01*
X120239434Y-57801428D01*
X120001339Y-57420476D01*
X119787053Y-57230000D01*
X119382291Y-57039523D01*
X115572767Y-57039523D02*
X115191815Y-57039523D01*
X114834672Y-57230000D01*
X114668005Y-57420476D01*
X114525148Y-57801428D01*
X114429910Y-58563333D01*
X114548958Y-59515714D01*
X114834672Y-60277619D01*
X115072767Y-60658571D01*
X115287053Y-60849047D01*
X115691815Y-61039523D01*
X116072767Y-61039523D01*
X116429910Y-60849047D01*
X116596577Y-60658571D01*
X116739434Y-60277619D01*
X116834672Y-59515714D01*
X116715625Y-58563333D01*
X116429910Y-57801428D01*
X116191815Y-57420476D01*
X115977529Y-57230000D01*
X115572767Y-57039523D01*
X113072767Y-59896666D02*
X111168005Y-59896666D01*
X113596577Y-61039523D02*
X111763244Y-57039523D01*
X110929910Y-61039523D01*
X109406101Y-59515714D02*
X106358482Y-59515714D01*
X103382291Y-57039523D02*
X103001339Y-57039523D01*
X102644196Y-57230000D01*
X102477529Y-57420476D01*
X102334672Y-57801428D01*
X102239434Y-58563333D01*
X102358482Y-59515714D01*
X102644196Y-60277619D01*
X102882291Y-60658571D01*
X103096577Y-60849047D01*
X103501339Y-61039523D01*
X103882291Y-61039523D01*
X104239434Y-60849047D01*
X104406101Y-60658571D01*
X104548958Y-60277619D01*
X104644196Y-59515714D01*
X104525148Y-58563333D01*
X104239434Y-57801428D01*
X104001339Y-57420476D01*
X103787053Y-57230000D01*
X103382291Y-57039523D01*
X99572767Y-57039523D02*
X99191815Y-57039523D01*
X98834672Y-57230000D01*
X98668005Y-57420476D01*
X98525148Y-57801428D01*
X98429910Y-58563333D01*
X98548958Y-59515714D01*
X98834672Y-60277619D01*
X99072767Y-60658571D01*
X99287053Y-60849047D01*
X99691815Y-61039523D01*
X100072767Y-61039523D01*
X100429910Y-60849047D01*
X100596577Y-60658571D01*
X100739434Y-60277619D01*
X100834672Y-59515714D01*
X100715625Y-58563333D01*
X100429910Y-57801428D01*
X100191815Y-57420476D01*
X99977529Y-57230000D01*
X99572767Y-57039523D01*
X94810863Y-57039523D02*
X95572767Y-57039523D01*
X95977529Y-57230000D01*
X96191815Y-57420476D01*
X96644196Y-57991904D01*
X96929910Y-58753809D01*
X97120386Y-60277619D01*
X96977529Y-60658571D01*
X96810863Y-60849047D01*
X96453720Y-61039523D01*
X95691815Y-61039523D01*
X95287053Y-60849047D01*
X95072767Y-60658571D01*
X94834672Y-60277619D01*
X94715625Y-59325238D01*
X94858482Y-58944285D01*
X95025148Y-58753809D01*
X95382291Y-58563333D01*
X96144196Y-58563333D01*
X96548958Y-58753809D01*
X96763244Y-58944285D01*
X97001339Y-59325238D01*
D12*
X106617142Y-78682142D02*
X106688571Y-78896428D01*
X106688571Y-79253571D01*
X106617142Y-79396428D01*
X106545714Y-79467857D01*
X106402857Y-79539285D01*
X106260000Y-79539285D01*
X106117142Y-79467857D01*
X106045714Y-79396428D01*
X105974285Y-79253571D01*
X105902857Y-78967857D01*
X105831428Y-78825000D01*
X105760000Y-78753571D01*
X105617142Y-78682142D01*
X105474285Y-78682142D01*
X105331428Y-78753571D01*
X105260000Y-78825000D01*
X105188571Y-78967857D01*
X105188571Y-79325000D01*
X105260000Y-79539285D01*
X105688571Y-79967857D02*
X105688571Y-80539285D01*
X105188571Y-80182142D02*
X106474285Y-80182142D01*
X106617142Y-80253571D01*
X106688571Y-80396428D01*
X106688571Y-80539285D01*
X106688571Y-81682142D02*
X105902857Y-81682142D01*
X105760000Y-81610714D01*
X105688571Y-81467857D01*
X105688571Y-81182142D01*
X105760000Y-81039285D01*
X106617142Y-81682142D02*
X106688571Y-81539285D01*
X106688571Y-81182142D01*
X106617142Y-81039285D01*
X106474285Y-80967857D01*
X106331428Y-80967857D01*
X106188571Y-81039285D01*
X106117142Y-81182142D01*
X106117142Y-81539285D01*
X106045714Y-81682142D01*
X106688571Y-82396428D02*
X105688571Y-82396428D01*
X105974285Y-82396428D02*
X105831428Y-82467857D01*
X105760000Y-82539285D01*
X105688571Y-82682142D01*
X105688571Y-82825000D01*
X105688571Y-83110714D02*
X105688571Y-83682142D01*
X105188571Y-83325000D02*
X106474285Y-83325000D01*
X106617142Y-83396428D01*
X106688571Y-83539285D01*
X106688571Y-83682142D01*
X109167142Y-79110714D02*
X109238571Y-79325000D01*
X109238571Y-79682142D01*
X109167142Y-79825000D01*
X109095714Y-79896428D01*
X108952857Y-79967857D01*
X108810000Y-79967857D01*
X108667142Y-79896428D01*
X108595714Y-79825000D01*
X108524285Y-79682142D01*
X108452857Y-79396428D01*
X108381428Y-79253571D01*
X108310000Y-79182142D01*
X108167142Y-79110714D01*
X108024285Y-79110714D01*
X107881428Y-79182142D01*
X107810000Y-79253571D01*
X107738571Y-79396428D01*
X107738571Y-79753571D01*
X107810000Y-79967857D01*
X108238571Y-80396428D02*
X108238571Y-80967857D01*
X107738571Y-80610714D02*
X109024285Y-80610714D01*
X109167142Y-80682142D01*
X109238571Y-80825000D01*
X109238571Y-80967857D01*
X109238571Y-81682142D02*
X109167142Y-81539285D01*
X109095714Y-81467857D01*
X108952857Y-81396428D01*
X108524285Y-81396428D01*
X108381428Y-81467857D01*
X108310000Y-81539285D01*
X108238571Y-81682142D01*
X108238571Y-81896428D01*
X108310000Y-82039285D01*
X108381428Y-82110714D01*
X108524285Y-82182142D01*
X108952857Y-82182142D01*
X109095714Y-82110714D01*
X109167142Y-82039285D01*
X109238571Y-81896428D01*
X109238571Y-81682142D01*
X108238571Y-82825000D02*
X109738571Y-82825000D01*
X108310000Y-82825000D02*
X108238571Y-82967857D01*
X108238571Y-83253571D01*
X108310000Y-83396428D01*
X108381428Y-83467857D01*
X108524285Y-83539285D01*
X108952857Y-83539285D01*
X109095714Y-83467857D01*
X109167142Y-83396428D01*
X109238571Y-83253571D01*
X109238571Y-82967857D01*
X109167142Y-82825000D01*
X111645714Y-78896428D02*
X111717142Y-78825000D01*
X111788571Y-78610714D01*
X111788571Y-78467857D01*
X111717142Y-78253571D01*
X111574285Y-78110714D01*
X111431428Y-78039285D01*
X111145714Y-77967857D01*
X110931428Y-77967857D01*
X110645714Y-78039285D01*
X110502857Y-78110714D01*
X110360000Y-78253571D01*
X110288571Y-78467857D01*
X110288571Y-78610714D01*
X110360000Y-78825000D01*
X110431428Y-78896428D01*
X111788571Y-79753571D02*
X111717142Y-79610714D01*
X111574285Y-79539285D01*
X110288571Y-79539285D01*
X111788571Y-80539285D02*
X111717142Y-80396428D01*
X111645714Y-80325000D01*
X111502857Y-80253571D01*
X111074285Y-80253571D01*
X110931428Y-80325000D01*
X110860000Y-80396428D01*
X110788571Y-80539285D01*
X110788571Y-80753571D01*
X110860000Y-80896428D01*
X110931428Y-80967857D01*
X111074285Y-81039285D01*
X111502857Y-81039285D01*
X111645714Y-80967857D01*
X111717142Y-80896428D01*
X111788571Y-80753571D01*
X111788571Y-80539285D01*
X111717142Y-82325000D02*
X111788571Y-82182142D01*
X111788571Y-81896428D01*
X111717142Y-81753571D01*
X111645714Y-81682142D01*
X111502857Y-81610714D01*
X111074285Y-81610714D01*
X110931428Y-81682142D01*
X110860000Y-81753571D01*
X110788571Y-81896428D01*
X110788571Y-82182142D01*
X110860000Y-82325000D01*
X111788571Y-82967857D02*
X110288571Y-82967857D01*
X111217142Y-83110714D02*
X111788571Y-83539285D01*
X110788571Y-83539285D02*
X111360000Y-82967857D01*
X113552857Y-76682142D02*
X113552857Y-77182142D01*
X114338571Y-77396428D02*
X114338571Y-76682142D01*
X112838571Y-76682142D01*
X112838571Y-77396428D01*
X113338571Y-78039285D02*
X114338571Y-78039285D01*
X113481428Y-78039285D02*
X113410000Y-78110714D01*
X113338571Y-78253571D01*
X113338571Y-78467857D01*
X113410000Y-78610714D01*
X113552857Y-78682142D01*
X114338571Y-78682142D01*
X114338571Y-80039285D02*
X113552857Y-80039285D01*
X113410000Y-79967857D01*
X113338571Y-79825000D01*
X113338571Y-79539285D01*
X113410000Y-79396428D01*
X114267142Y-80039285D02*
X114338571Y-79896428D01*
X114338571Y-79539285D01*
X114267142Y-79396428D01*
X114124285Y-79325000D01*
X113981428Y-79325000D01*
X113838571Y-79396428D01*
X113767142Y-79539285D01*
X113767142Y-79896428D01*
X113695714Y-80039285D01*
X114338571Y-80753571D02*
X112838571Y-80753571D01*
X113410000Y-80753571D02*
X113338571Y-80896428D01*
X113338571Y-81182142D01*
X113410000Y-81325000D01*
X113481428Y-81396428D01*
X113624285Y-81467857D01*
X114052857Y-81467857D01*
X114195714Y-81396428D01*
X114267142Y-81325000D01*
X114338571Y-81182142D01*
X114338571Y-80896428D01*
X114267142Y-80753571D01*
X114338571Y-82325000D02*
X114267142Y-82182142D01*
X114124285Y-82110714D01*
X112838571Y-82110714D01*
X114267142Y-83467857D02*
X114338571Y-83325000D01*
X114338571Y-83039285D01*
X114267142Y-82896428D01*
X114124285Y-82825000D01*
X113552857Y-82825000D01*
X113410000Y-82896428D01*
X113338571Y-83039285D01*
X113338571Y-83325000D01*
X113410000Y-83467857D01*
X113552857Y-83539285D01*
X113695714Y-83539285D01*
X113838571Y-82825000D01*
X115460000Y-77110714D02*
X115388571Y-76967857D01*
X115388571Y-76753571D01*
X115460000Y-76539285D01*
X115602857Y-76396428D01*
X115745714Y-76325000D01*
X116031428Y-76253571D01*
X116245714Y-76253571D01*
X116531428Y-76325000D01*
X116674285Y-76396428D01*
X116817142Y-76539285D01*
X116888571Y-76753571D01*
X116888571Y-76896428D01*
X116817142Y-77110714D01*
X116745714Y-77182142D01*
X116245714Y-77182142D01*
X116245714Y-76896428D01*
X116888571Y-77825000D02*
X115888571Y-77825000D01*
X116174285Y-77825000D02*
X116031428Y-77896428D01*
X115960000Y-77967857D01*
X115888571Y-78110714D01*
X115888571Y-78253571D01*
X116888571Y-78967857D02*
X116817142Y-78825000D01*
X116745714Y-78753571D01*
X116602857Y-78682142D01*
X116174285Y-78682142D01*
X116031428Y-78753571D01*
X115960000Y-78825000D01*
X115888571Y-78967857D01*
X115888571Y-79182142D01*
X115960000Y-79325000D01*
X116031428Y-79396428D01*
X116174285Y-79467857D01*
X116602857Y-79467857D01*
X116745714Y-79396428D01*
X116817142Y-79325000D01*
X116888571Y-79182142D01*
X116888571Y-78967857D01*
X115888571Y-80753571D02*
X116888571Y-80753571D01*
X115888571Y-80110714D02*
X116674285Y-80110714D01*
X116817142Y-80182142D01*
X116888571Y-80325000D01*
X116888571Y-80539285D01*
X116817142Y-80682142D01*
X116745714Y-80753571D01*
X115888571Y-81467857D02*
X116888571Y-81467857D01*
X116031428Y-81467857D02*
X115960000Y-81539285D01*
X115888571Y-81682142D01*
X115888571Y-81896428D01*
X115960000Y-82039285D01*
X116102857Y-82110714D01*
X116888571Y-82110714D01*
X116888571Y-83467857D02*
X115388571Y-83467857D01*
X116817142Y-83467857D02*
X116888571Y-83325000D01*
X116888571Y-83039285D01*
X116817142Y-82896428D01*
X116745714Y-82825000D01*
X116602857Y-82753571D01*
X116174285Y-82753571D01*
X116031428Y-82825000D01*
X115960000Y-82896428D01*
X115888571Y-83039285D01*
X115888571Y-83325000D01*
X115960000Y-83467857D01*
M02*
